<?xml version="1.0" encoding="UTF-8"?>
<!DOCTYPE svg PUBLIC "-//W3C//DTD SVG 1.1//EN" "http://www.w3.org/Graphics/SVG/1.1/DTD/svg11.dtd">
<!-- Creator: CorelDRAW 2019 (64 Bit) -->
<svg xmlns="http://www.w3.org/2000/svg" xml:space="preserve" width="165.613mm" height="158.818mm" version="1.1" style="shape-rendering:geometricPrecision; text-rendering:geometricPrecision; image-rendering:optimizeQuality; fill-rule:evenodd; clip-rule:evenodd"
viewBox="0 0 2704.25 2593.28"
 xmlns:xlink="http://www.w3.org/1999/xlink">
 <defs>
  <style type="text/css">
   <![CDATA[
    .fil1 {fill:none}
    .fil0 {fill:#FEFEFE}
   ]]>
  </style>
 </defs>
 <g id="Camada_x0020_1">
  <metadata id="CorelCorpID_0Corel-Layer"/>
  <g id="_1442095390448">
   <path class="fil0" d="M1384.96 2443.58l68.24 -206.83c5.75,4.71 67.04,119.72 67.59,125.6 -21.95,14.61 -44.71,27.15 -66.9,40.44 -11.87,7.11 -61.15,37.95 -68.93,40.79zm-129.88 -2443.58l6.54 0 0.85 0.09c10.84,1.3 29.7,13.87 39.86,18.9l155.85 82.04c7.03,3.86 12.81,6.44 20.08,10.08l97.63 51.47c67.19,39.05 89.37,27.65 79.52,92.78l-7.34 170.25c-0.2,16.98 -3.42,37.38 -3.42,55.22 7.99,4.23 14.48,8.12 22.91,12.27 8.5,4.19 14.93,7.72 19.34,15.84 6.42,11.81 1.3,48.9 1.3,65.71 7.95,1.85 14.01,6.39 20.18,9.98 6.43,3.74 13.52,6.46 19.96,10.2l156.74 84.51c7.36,3.96 12.32,6.53 19.82,10.33 15.96,8.09 37.63,15.62 39.95,35.45l-0.28 42.26c-0.28,9.32 -1.73,15.18 -1.73,26.75 6.96,-1.62 34.96,-10.39 40.82,-14.46 7.23,-5.03 30.79,-77.44 35.18,-90.47 6.36,-18.87 11.27,-33.4 31.55,-38.82 18.49,-4.94 35.17,-12.47 53.5,-18.54l131.33 -46.25c15.51,-5.13 39.17,-17.7 55.12,-13.35 10.5,2.86 82.2,43.05 93.65,48.76 4.76,2.38 7.64,3.63 12.29,6.13l80.96 43.01c47.36,23.65 93.32,50.19 140.74,73.71l45.76 24.61c15.95,7.97 35.89,13.49 39.99,32.16 2.54,11.58 -5.06,31.23 -9.87,42.6 -2.1,4.97 -2.99,6.08 -4.93,11.83l-124.57 339.51c-1.76,4.4 -3.24,9.35 -4.8,13.63 -4.08,11.26 -8.68,28.52 -14.99,36.94 -7.66,10.23 -10.5,8.58 -20.73,14.45 -7.6,4.36 -17.02,8.15 -24.81,12.05 -7.84,3.92 -15.55,7.21 -23.7,11.48 -1.36,0.71 -11.59,5.92 -12.09,6.34 -2.91,2.44 -4.15,7.11 -5.49,11.26l-28.84 78.38c-6.6,17.68 -12.29,33.62 -18.91,51.46l-10.04 26.82c-3.14,7.74 -6.65,17.76 -9.58,25.6l-23.95 64.84c-1.67,4.17 -3.08,9.1 -4.76,13.67l-38.78 105.31c-2.03,5.48 -7.24,19.93 -10.47,24.72 -7.48,11.09 -24.64,12.81 -29.81,23.8 -7.65,16.25 -13,35.82 -19.75,52.29l-81.21 220.5c-2.85,10.95 3.96,17.92 7.22,25.98l79.94 169.69c6.97,16.89 15.08,31.86 22.51,47.86 4.16,8.97 5.15,21.21 -0.02,30.18 -3,5.2 -12.27,13.12 -17.17,18.01l-285.63 285.66c-29.06,29.07 -29.38,33.53 -72.78,21.69 -9.58,-2.62 -19.83,-4.42 -28.51,-6.67l-228.56 -56.24c-9.8,-2.9 -18.41,-3.97 -28.37,-6.81 -26.09,-7.44 -29.08,-5.74 -41.45,-30.59 -7.3,-14.66 -33.54,-57.32 -36.32,-69.23 -9.83,0.82 -38.01,19.88 -47.89,25.82 -8.44,5.07 -14.08,8.91 -23,13.86l-112.86 68.08c-41.06,24.49 -35.78,28.28 -74.24,2.82l-151.45 -101.52c-15.03,-10.02 -28.37,-18.92 -43.22,-28.82l-65.34 -43.56c-4.68,-2.93 -6.08,-4.58 -10.86,-7.57 -4.8,-3 -5.38,-3.7 -9.9,-6.86l-87.47 -58.28c-8.75,-5.54 -12.63,-10.21 -21.08,-15.77l-43.23 -28.81c-7.33,-4.89 -13.84,-9.72 -21.44,-13.74 -7.81,11.66 -129.42,130.27 -142.82,143.67l-76.41 76.05c-1.53,1.59 -0.9,0.87 -2.53,2.5l-64.09 63.23c-1.31,1.23 -1.78,1.83 -2.49,2.54 -5.96,6 -11.58,10.5 -20.34,11.63 -11.9,1.53 -71.98,-15.62 -87.37,-19.13l-143.57 -35.69c-5.18,-1.51 -9.91,-2.3 -15.07,-3.36 -11.15,-2.28 -92.3,-21.73 -98.66,-25.31 -8.75,-4.93 -10.35,-11.68 -15.16,-20.02 -17.26,-29.92 -32.69,-62.31 -50.11,-92.3l-19.05 -36.23c-2.46,-4.56 -3.94,-6.26 -6.17,-10.58l-75.04 -139.4c-17.5,-28.75 -33.21,-49.22 -9.94,-72.96 17.67,-18.03 39.43,-47.37 57.75,-66.23l225.15 -255.67c19.44,-24.36 30.14,-9.08 51.71,-8.6 0,-19.99 -7.84,-55.88 -11.5,-77.3l-40.32 -264.61c-1,-8.25 0.06,-10.71 -6.36,-15.42 -12.14,-8.93 -75,-44.28 -94.97,-57.49 -26.4,-17.47 -54.39,-32.74 -81.08,-49.6 -5.2,-3.29 -9.23,-5.39 -14.7,-8.76 -12.97,-7.99 -29.73,-14.34 -35.19,-30.14 -4.4,-12.75 -9.43,-57.05 -12.43,-74.69l-41.17 -263.75c-3.16,-15.11 -6.38,-19.56 1.61,-33.85 4.95,-8.87 15.19,-14.77 22.83,-20.73l239.03 -198.23c8.32,-7 15.49,-12.89 23.6,-19.96l71.45 -59.23c25.47,-20.02 29.72,-20.26 58.63,-3.1l112.67 63.24c5.38,2.99 9.33,5.05 14.02,7.76 4.71,2.71 8.9,5.25 13.87,7.91l195.53 109.37c7.76,4.47 19.91,15.44 28.71,8.92l69.07 -61.74c16.2,-12.53 30.43,-27.88 46.45,-40.67 7.55,-6.03 15.09,-14.92 23.2,-20.35l-8.29 -125.75c-0.4,-4.84 0.1,-10.17 -0.03,-15.04 -1.13,-41.25 -8.04,-101.87 -8.37,-140.75 -0.47,-55.15 -16.54,-65.82 17.42,-91.35l162.48 -134.06c6.22,-4.89 10.44,-8.65 16.57,-13.59l113.82 -93.92c9.91,-8.82 18.46,-19.13 32.17,-20.54zm419.61 2468.26l244.7 -278.62 289.38 72.4c-15.56,18.11 -36.48,37.15 -53.87,54.37 -18.63,18.45 -35.91,35.92 -54.52,54.38 -10.95,10.86 -158.56,161.02 -164.02,161.4l-261.67 -63.92zm-1153.82 -6.85l-264.96 -64.27c3.6,-6.7 62.13,-72.62 75.35,-86.7 29.36,-31.27 79.42,-91.25 107.22,-122.35 21.32,-23.85 41.32,-47.04 61.8,-70.03l289.22 72.75c-12.21,16.06 -205.3,206.85 -234.57,236.07 -10,9.99 -26.22,24.26 -34.05,34.54zm1104.39 -28.07l-34.66 -65.5c-12.53,-22.51 -23.31,-44.06 -35.88,-66.36l-53.33 -99.13c-5.34,-10.16 -14.14,-23.52 -18.27,-34.35 5.15,-8.36 8.91,-10.72 14.79,-17.72 5.13,-6.1 10.47,-11.76 15.53,-18.03 9.79,-12.15 20.71,-23.62 31.56,-35.41l62.72 -71.31c20.63,-23.57 41,-46.33 61.92,-70.43 10.74,-12.38 55.58,-66.21 64.12,-70.85 2.48,9.5 58.94,111.5 69.74,133.25 22.47,45.22 48.01,88.93 70.58,133.74 -2.75,7.14 -52.07,61.39 -61.21,71.05l-107.99 123.26c-12.25,13.17 -71.07,83.58 -79.62,87.79zm-313.35 32.83c-7.51,-2.61 -74.08,-48.8 -86.15,-56.86 -28.34,-18.94 -56.95,-37.87 -85.31,-57.09 -25.9,-17.56 -150.97,-99.28 -171.39,-115.53l101.99 -341.17c9.13,3.39 165.71,104.76 177.48,112.37 29.55,19.1 59.48,37.22 89.02,56.77 29.22,19.33 60.62,36.94 88.63,56.91l-114.28 344.62zm-1104.91 -103.83c-22.87,-44.11 -48.11,-87.08 -71.44,-132.69 -22.88,-44.73 -49.17,-88.49 -71.57,-133.19l248.79 -283.33c3.33,3.07 127.75,234.42 142.64,267.74l-37.83 44.48c-27.54,29.39 -58.74,66.97 -85.63,97 -20.68,23.08 -58.04,68.06 -77.08,87.08 -10.18,10.17 -39.2,48.01 -47.89,52.91zm1588.29 -484.78c20.27,2.6 53.58,13.08 74.33,18.48l146.91 37.46c23.46,5.97 52.15,11.6 74.83,18.97 7.29,2.37 7.15,5.03 10.03,11.76l22.39 47.92c7.32,15.25 86.77,182.08 89.15,191.25 -23.01,-3.77 -50.63,-12.45 -74.46,-18.43l-203.21 -51.32c-8.36,-2.37 -7.63,-3.85 -11.65,-11.78 -20.94,-41.21 -43.46,-80.01 -64.26,-121.71l-56.26 -106.26c-3.17,-5.83 -5.21,-11.67 -7.81,-16.35zm-1022.96 72.14c-16.86,-36.81 -35.01,-62.59 -33.33,-98.44l237.41 155.67c-1.32,14.02 -36.23,123.82 -43.08,146.7 -4.49,14.99 -10.71,33.04 -14.15,48.15 -4.04,-1.26 -38.12,-23.5 -40.82,-26.39l-106.04 -225.69zm7.3 150.18c3.98,8.43 11.63,22.6 14.29,32.07 -16.21,-1.85 -224.16,-56 -262.33,-65.66 -24.89,-6.3 -19.71,-2.45 -27.56,-17.47l-127.53 -242.52c22.25,3.71 219.81,55.46 260.45,66.11 40,10.49 37.3,3.81 46.26,22.32l96.43 205.15zm1054.02 -271.86c1.6,-9.26 6.32,-20.95 9.24,-29.71 3.38,-10.16 6.3,-19.15 9.58,-28.91 5.9,-17.55 1.95,-14.05 16.52,-22.1 34.23,-18.91 25.58,-18.84 47.73,-5.56 12.68,7.6 67.18,38.35 70.82,42.57 -8.06,6.7 -25.89,14.72 -35.93,20.52 -83.05,47.97 -52.36,36.42 -117.97,23.18zm209.56 53.32c0.86,-4.56 17.86,-52.97 19.23,-54.38 3.25,-3.35 8.65,-1.41 14.87,-3.61 10.29,-3.65 114.57,-65.16 128.62,-69.34l-62.04 165.92c-10.83,-19.38 -21.29,-18.62 -45.53,-24.63 -18.15,-4.49 -37.43,-10.34 -55.15,-13.96zm-1696.9 -143.94l0 0zm745.34 92.55c1.13,-11.39 24.57,-83.95 29.72,-101.58l59.67 -198.15c9.79,-32.22 22.53,-67.88 30.18,-100.14l371.31 218.51c-0.93,10.82 -12.49,40.38 -16.37,52.23 -13.33,40.69 -114.78,349.02 -119.21,354.67 -7.78,-3.91 -14.86,-9 -22.59,-14.04 -7.44,-4.85 -14.82,-9.2 -22.55,-14.3 -43.28,-28.58 -88.83,-55.4 -133,-84.83 -44.51,-29.66 -89.44,-56.01 -132.96,-84.84 -12.06,-7.99 -32.35,-22.24 -44.21,-27.54zm-51.74 -69.39c1.6,25.4 3.28,29.06 -3.72,51.97l-39.75 133.22c-8.83,-2.92 -261.33,-171.47 -261.34,-171.48 -2.22,-3.17 -14.03,-120.04 -13.15,-130.08 10.26,4.2 28.88,17.41 40.21,24.15l118.47 72.53c26.28,15.35 54.39,32.24 80.13,48.87 43.09,27.85 50.55,-14.89 79.16,-29.17zm-647.46 -132.3c10.88,4.63 27.37,17.06 37.6,23.72l211.98 139.83c26.37,17.36 29.54,14.38 30.26,30.5l-260.55 -66.42 -19.29 -127.63zm1583.89 -69.79c12.52,2.85 53.15,30.5 67.73,37.47 17.96,8.59 27.48,2.3 37.81,-5.96 4.32,-3.45 27.95,-17.15 34.36,-19l-64.16 181.92c-13.23,-2.75 -100.07,-60.07 -118.69,-67.26l42.94 -127.17zm-403.13 320.26c17.31,-51.41 34.19,-102.17 51,-153.28 4.27,-12.97 8.64,-25.71 13.02,-39.03 7.75,-23.55 6.28,-28.02 18.27,-33.66 23.28,-10.96 46.22,-21.74 68.81,-33.39l103.73 -50.37c10.54,-5.01 24.48,-13.48 36,-16.19l-86.57 260.31c-15.62,-2.76 -36.53,-13.04 -51.33,-5.96 -8.65,4.14 -52.62,56.29 -59.68,64.31l-56.98 65.35c-10.66,11.17 -80.79,93.88 -87.49,97.61l51.23 -155.68zm547.12 -144.95c1.89,-11.92 61.78,-175.78 67.49,-192 7.45,-21.14 2.77,-14.93 32.87,-32.46 13.01,-7.58 27,-15.66 40.42,-23.23 13.7,-7.73 27.48,-15.79 41.4,-23.96 10.08,-5.92 31.92,-20.09 41.55,-23.05 -3.88,15.4 -12.14,33.92 -17.58,48.77l-61.6 166.1c-2.28,3.2 -138.54,77.66 -144.56,79.84zm-1479.81 -139.83c8.8,5.04 10.46,3.85 11.67,15.63 3.35,32.63 10.32,89.59 10.77,116.67 -9.81,-4.05 -76.87,-49.86 -91.73,-59.6l-181.71 -119.87c-13.46,-8.66 -10.93,-6.6 -13.69,-25.14 -3.61,-24.22 -13.69,-79.3 -14.39,-97.03 13.38,6.29 52.02,31.04 68.69,41.32l21.99 14.87c22,14.87 38.4,-1.14 49.99,-13.12 4.32,-4.47 33.68,-32.46 39.86,-33.68 2.13,25.59 4.29,72.37 9.4,95.05 3.26,14.46 14.35,19.41 25.67,26.18l63.46 38.72zm371.26 111.83c-3.21,-83.02 -10.15,-164.04 -13.87,-246.49 -1.83,-40.63 -6.61,-17.29 28.55,-53.62 4.38,-4.53 6.9,-6.34 11.58,-10.22l168.94 -152.03c-3.06,17.91 -13.17,45.26 -18.94,64.24l-94.85 315.63c-5.36,17.99 -5.13,15 -16.95,24.84 -11.55,9.61 -55.97,52.76 -64.46,57.66zm-406.35 -207.84l-16.39 -171.05c-2.7,-29.86 -8.77,-67.79 -8.85,-97.23 9.54,3.56 349.94,202.64 354.83,206.94l15.59 278.84c-6.77,-1.92 -123.61,-74.55 -133.36,-80.43 -64.01,-38.6 -137.26,-86.2 -199.58,-122.07 -8.16,-4.7 -10.99,-3.91 -12.24,-15zm629.03 -132.48c1.97,-13.41 11.21,-38.68 15.52,-52.94 5.63,-18.63 10.34,-34.57 15.85,-52.82 13.24,-43.86 91.75,-309.73 95.7,-314.23 19.91,9.35 72.66,40.85 96.37,53.89 23.19,12.75 277.39,157.1 289.39,161.98l-140.88 422.86c-9.42,-2.8 -368.83,-215.37 -371.96,-218.73zm717.52 111.72c22.31,-67.37 45.18,-135.32 67.54,-202.66 10.25,-30.86 56.64,-174.91 67.67,-201.86 26.67,12.75 72.95,45.12 95.88,54.97l-142.7 399.04c-9.03,-3.05 -81.35,-43.78 -88.38,-49.5zm-1314.17 -342.94c5.11,-5.01 13.57,-12.63 19.46,-17.39 19.11,-15.43 41.23,-37.61 56.98,-50.26 6.82,-5.48 13.34,-11.4 19.89,-16.99 3.45,-2.95 5.9,-5.9 9.53,-8.87l77.67 -68.09c14.75,-13.53 77.86,-70.74 86.2,-75.21 14.96,6.91 30.21,16.55 44.63,24.63l300.44 168.62c-0.72,8.28 -5.24,20.27 -7.87,29.11 -4.21,14.15 -7.67,11.92 -16.43,20.29l-267.16 241.15c-8.93,-2.57 -78.22,-44.69 -92.1,-52.68 -19.78,-11.4 -262.83,-152.33 -270.08,-159.12l38.85 -35.19zm1142.55 122.3c8.47,-25.98 17.25,-51.55 25.88,-77.93 3.34,-10.21 4.57,-9.23 13.75,-13.1 5.32,-2.24 11.57,-5.08 17.61,-7.56l182.67 -77.12c-1.7,11.64 -109.62,331.34 -116.85,352.39 -4.17,12.15 -5.7,29.42 -17.11,34.87 -21.66,10.36 -199.05,98.67 -210.47,102.18l104.5 -313.74zm335.42 246.14c6.48,-23.52 18.15,-51.34 26.64,-75.05l94.24 -262.65c9.15,-25 5.35,-25.28 18.89,-31.29l212.66 -91.02c-16.26,49.15 -36.14,99.78 -54.17,149.05 -18.22,49.8 -35.42,99.12 -54.17,148.5 -8.61,22.66 -5.93,26 -18.68,33.26 -29.24,16.65 -216.63,126.72 -225.41,129.21zm-1611.15 -412.86c33.88,-28.78 77.94,-71.1 111.18,-98.24 32.14,-26.25 78.86,-71.98 112.11,-98.98 7.14,-5.8 30.99,-28.93 36.15,-30.29l4.15 80.85 -69.35 61.11c-7.16,6.03 -16.12,13.32 -22.5,19.44 -7.53,7.23 -15.49,14.56 -23.03,20.51l-90.91 79.96c-5.48,5.2 -6.68,6.15 -11.59,10.21 -4.2,3.47 -7.13,6.95 -11.39,10.34 -8.29,6.6 -17.78,10.52 -21.13,22.37 -3.06,10.83 7.61,101.97 9.01,116.35 2.24,23.04 7.54,56.87 6.97,79.15 -7,4.27 -34,31.73 -39.21,32.11l-28.11 -272.69 37.65 -32.21zm-94.8 79.64c3.86,36.33 24.15,215.85 23.35,230.81 -18.78,-8.94 -261.36,-158.82 -288.19,-175.25 -14.67,-8.99 -27.4,-13.29 -29.62,-22.89l-40.97 -265.85c10.15,3.83 23.95,13.18 33.75,18.98l260.42 151.7c9.74,5.6 24.23,12.88 32.92,19.08 6.47,4.61 4.97,10.96 6.01,21.25 0.72,7.22 1.53,14.64 2.34,22.18zm1008.43 -264.27c1.61,-1.69 0.72,-1.02 3.09,-2.51 0.34,-0.21 0.76,-0.46 1.12,-0.66 0.36,-0.2 0.8,-0.39 1.17,-0.56 1.01,-0.48 3.92,-1.38 4.94,-1.72 37.6,-12.68 223.71,-81.28 230.79,-80.17 4.62,0.72 241.63,141.54 274.99,160.72l67.16 40.04c-6.31,5.21 -165.71,71.52 -193.15,83.25 -22.69,9.7 -18.45,10.54 -39.23,-1.63 -67.05,-39.27 -142.04,-79.53 -210.24,-118.18l-140.64 -78.56zm-399.33 -66.91c11.38,4.03 24.79,12.99 35.21,18.65l98.88 55.25c36.28,19.82 99.39,57.87 131.34,73.2 -0.77,8.23 -11.11,43.7 -15.15,48.55l-247.68 -138.22 -2.59 -57.44zm1013.92 -14.48c12.26,-4.39 70.05,-28.03 78.27,-25.62l339.03 182.33c-10.3,6.82 -225.48,97.61 -227.03,97.42l-103.75 -59.92c-9.34,-5.64 -24.53,-15.61 -33.99,-19.65 -23.84,-10.18 -14.25,-5.71 -36.65,-18.6l-169.08 -99.83 153.2 -56.13zm445.48 106.04c1.62,-11.51 3.57,-9.72 13.68,-13.72 23.73,-9.38 120.16,-52.16 132.49,-55.38l-122.81 334.9c-5.26,14.48 -1.96,10.56 -15.82,17.59 -5.93,3 -15.2,8.03 -21.54,9.57 4.11,-15.93 65.1,-179.19 74.85,-205.9 5.45,-14.92 15.24,-24.08 7.59,-42.68 -9.23,-22.43 -47.58,-25.75 -68.43,-44.38zm-2156.88 -252.74c13.46,-10.91 25.99,-21.18 39.38,-32.64l39.25 -31.7 336.5 188.18c-4.61,9.53 -145.39,127.61 -171.6,153.24 -28.17,27.55 -87.66,74.57 -114.01,100.43 -4.18,4.1 -14.68,13.94 -19.21,16.62 -3.37,0.5 -77.82,-44.04 -86.98,-49.38 -28.41,-16.54 -57.57,-33.33 -85.81,-49.91 -28.95,-17 -56.77,-32.84 -85.67,-50.02 -1.58,-0.94 -83.41,-47.34 -84.04,-49.88 -0.12,-0.49 -0.54,-0.55 -0.79,-0.84l232.98 -194.1zm787.97 40.83c23.33,-21.11 46.49,-40.37 70.3,-62.06l124.96 -109.61c6.53,-6.15 11.19,-8.99 16.29,-14.96 10.19,3.06 75.67,40.03 91.13,48.09l181.22 96.85c13.54,7.55 85.26,43.42 89.28,49.2 -3.43,4.07 -35.14,32.68 -38.58,34.5 -11.97,6.32 -40.1,14.5 -54.27,19.49l-215.22 76.23c-13.69,4.87 -44.34,13.4 -52.51,21.23 -13.43,12.88 -11.47,38.61 -20.79,51.63 -9.17,-3.11 -24.72,-13.14 -33.98,-18.3 -11.28,-6.29 -21.36,-12.17 -33.31,-18.64 -22.05,-11.92 -43.47,-23.8 -65.56,-36.65l-115 -64.25c-7.52,-4.15 -11.2,-4.66 -15.22,-10.31l71.27 -62.45zm-290.48 91.24c6.36,-4.75 12.13,-10.79 18.81,-16.15 17.42,-14 35.52,-32.62 53.23,-47.24 6.26,-5.16 11.74,-10.4 18.01,-15.55 14.65,-12.02 42.47,-39.18 54.15,-47.14l59.57 33.98c-11.85,13.86 -42.37,37.19 -55.24,49.86 -14.71,14.49 -5.68,69.54 -4.84,94.32 -23.35,-6.73 -52.32,-42.26 -78.77,-20.45 -7.52,6.2 -53.83,48.98 -60.35,52.21l-4.56 -83.83zm1306.96 -122.26c5.2,-5.15 52.95,-19.82 64.39,-23.95 22.25,-8.03 43.59,-15.36 65.68,-23.08 15.12,-5.29 18.64,-10.73 32.27,-3.52l203.23 106.72c27.43,14.49 90.64,49.27 115.15,60.4l-126.69 55.32c-16.08,7.11 -16.83,10.75 -32.33,1.85l-88.19 -47.51c-59.48,-33.36 -118.04,-62.43 -176.4,-95 -18.06,-10.08 -40.06,-19.75 -57.1,-31.24zm-524.87 -72.04c2.24,-4.68 10.56,-11.4 15.3,-13.94l252.02 135.07 -86.65 86.88 -23.08 -13.66c-6.69,-55.21 19.44,-98.07 -12.62,-116.43 -9.23,-5.29 -18.85,-10.12 -28.51,-15.05l-116.45 -62.87zm-630.6 -268.6l75.65 39.56c24.68,13.65 48.36,25.44 73.08,39.15 15.65,8.69 136.87,72.09 146.12,78.9 -6.66,7.41 -15.96,14.17 -24.34,22.2l-170.91 149.32c-7.23,-2.05 -76.24,-40.96 -83.13,-46.02l-16.48 -283.12zm399.9 144.75c37.02,-33.1 73.73,-65.46 111.82,-98.95l56.23 -49.32c8.55,-8.26 17.85,-15.3 27.5,-24.45 6.5,-6.17 21.58,-19.92 29.36,-24.13 -1.49,74.49 -7.49,167.84 -11.04,245.32 -0.86,18.76 -4.81,16.83 -15.71,26.04 -6.1,5.15 -16.58,16.42 -22.67,19.63 -8.54,-2.42 -172.56,-91.05 -175.48,-94.14zm-145.5 -396.53c40.46,-33.77 32.05,-33.12 52.63,-21.99l59.29 31.2c27.07,14.14 52.33,27.29 79.03,41.58 52.15,27.92 105.6,56.46 157.91,82.94 -3.88,6.21 -39.03,35.78 -48.74,44.12 -24.09,20.68 -57.58,53.19 -80.79,71.63 -15.78,12.54 -122.05,109.89 -131.2,114.56 -29.96,-13.85 -127.08,-67.03 -160.35,-85.38 -12.21,-6.74 -153.84,-80.22 -159.76,-86.66l231.99 -192z"/>
   <path class="fil1" d="M88.48 871.22c0.24,0.3 0.66,0.35 0.79,0.84 0.63,2.53 82.46,48.94 84.04,49.88 28.9,17.19 56.72,33.02 85.67,50.02 28.24,16.58 57.4,33.37 85.81,49.91 9.16,5.34 83.61,49.88 86.98,49.38 4.53,-2.68 15.03,-12.52 19.21,-16.62 26.34,-25.86 85.83,-72.88 114.01,-100.43 26.21,-25.63 166.99,-143.72 171.6,-153.24l-336.5 -188.18 -39.25 31.7c-13.39,11.46 -25.92,21.73 -39.38,32.64l-232.98 194.1z"/>
   <path class="fil1" d="M433.18 1400.29c0.81,-14.96 -19.49,-194.48 -23.35,-230.81 -0.8,-7.54 -1.61,-14.96 -2.34,-22.18 -1.03,-10.29 0.46,-16.64 -6.01,-21.25 -8.69,-6.19 -23.17,-13.48 -32.92,-19.08l-260.42 -151.7c-9.8,-5.8 -23.59,-15.15 -33.75,-18.98l40.97 265.85c2.22,9.6 14.95,13.9 29.62,22.89 26.83,16.43 269.41,166.31 288.19,175.25z"/>
  </g>
 </g>
</svg>
