<?xml version="1.0" encoding="UTF-8"?>
<!DOCTYPE svg PUBLIC "-//W3C//DTD SVG 1.1//EN" "http://www.w3.org/Graphics/SVG/1.1/DTD/svg11.dtd">
<!-- Creator: CorelDRAW 2019 (64 Bit) -->
<svg xmlns="http://www.w3.org/2000/svg" xml:space="preserve" width="165.613mm" height="158.818mm" version="1.1" style="shape-rendering:geometricPrecision; text-rendering:geometricPrecision; image-rendering:optimizeQuality; fill-rule:evenodd; clip-rule:evenodd"
viewBox="0 0 4382.04 4202.23"
 xmlns:xlink="http://www.w3.org/1999/xlink">
 <defs>
  <style type="text/css">
   <![CDATA[
    .fil0 {fill:black}
   ]]>
  </style>
 </defs>
 <g id="Camada_x0020_1">
  <metadata id="CorelCorpID_0Corel-Layer"/>
  <path class="fil0" d="M2244.23 3959.64l110.58 -335.16c9.32,7.63 108.63,194 109.52,203.53 -35.56,23.67 -72.45,43.99 -108.4,65.52 -19.23,11.52 -99.09,61.5 -111.7,66.1zm-210.46 -3959.64l10.6 0 1.38 0.15c17.56,2.11 48.13,22.48 64.58,30.63l252.55 132.95c11.39,6.26 20.75,10.44 32.53,16.33l158.2 83.41c108.88,63.28 144.82,44.81 128.85,150.35l-11.9 275.88c-0.32,27.52 -5.54,60.57 -5.54,89.48 12.94,6.85 23.47,13.16 37.12,19.89 13.77,6.79 24.2,12.5 31.35,25.66 10.4,19.14 2.11,79.24 2.11,106.48 12.88,3 22.69,10.36 32.7,16.17 10.42,6.06 21.91,10.48 32.34,16.53l253.98 136.94c11.93,6.42 19.96,10.58 32.12,16.75 25.87,13.11 60.98,25.32 64.74,57.45l-0.45 68.47c-0.45,15.1 -2.8,24.59 -2.8,43.35 11.28,-2.63 56.65,-16.83 66.15,-23.44 11.71,-8.14 49.89,-125.49 57.01,-146.6 10.31,-30.58 18.27,-54.13 51.12,-62.9 29.95,-8 56.98,-20.2 86.69,-30.04l212.82 -74.94c25.13,-8.31 63.47,-28.69 89.32,-21.64 17.02,4.64 133.2,69.76 151.75,79.02 7.71,3.85 12.38,5.88 19.92,9.94l131.19 69.7c76.74,38.32 151.23,81.33 228.05,119.44l74.15 39.87c25.84,12.91 58.16,21.87 64.81,52.11 4.12,18.76 -8.19,50.6 -15.99,69.04 -3.41,8.05 -4.85,9.85 -7.99,19.16l-201.86 550.15c-2.84,7.13 -5.25,15.15 -7.77,22.09 -6.61,18.25 -14.07,46.22 -24.3,59.86 -12.42,16.57 -17.01,13.9 -33.6,23.41 -12.32,7.06 -27.58,13.21 -40.2,19.52 -12.71,6.36 -25.2,11.69 -38.4,18.61 -2.2,1.15 -18.78,9.6 -19.59,10.27 -4.71,3.95 -6.72,11.52 -8.9,18.25l-46.74 127.02c-10.7,28.64 -19.92,54.48 -30.64,83.38l-16.28 43.45c-5.09,12.54 -10.77,28.77 -15.52,41.49l-38.82 105.07c-2.71,6.75 -5,14.75 -7.72,22.15l-62.83 170.64c-3.29,8.87 -11.73,32.3 -16.96,40.05 -12.12,17.97 -39.92,20.76 -48.3,38.57 -12.4,26.32 -21.06,58.04 -32.01,84.73l-131.59 357.3c-4.62,17.75 6.41,29.04 11.7,42.1l129.54 274.97c11.3,27.37 24.44,51.63 36.47,77.55 6.75,14.54 8.35,34.37 -0.04,48.9 -4.87,8.43 -19.89,21.26 -27.82,29.19l-462.85 462.89c-47.09,47.1 -47.61,54.34 -117.94,35.15 -15.53,-4.24 -32.13,-7.16 -46.2,-10.81l-370.36 -91.14c-15.88,-4.7 -29.83,-6.43 -45.97,-11.04 -42.28,-12.06 -47.12,-9.3 -67.17,-49.56 -11.83,-23.76 -54.35,-92.88 -58.85,-112.19 -15.93,1.33 -61.59,32.21 -77.61,41.84 -13.67,8.22 -22.81,14.44 -37.26,22.46l-182.88 110.31c-66.53,39.69 -57.98,45.83 -120.29,4.56l-245.41 -164.51c-24.35,-16.24 -45.97,-30.65 -70.04,-46.7l-105.88 -70.58c-7.58,-4.74 -9.85,-7.42 -17.6,-12.26 -7.77,-4.86 -8.72,-6 -16.04,-11.11l-141.74 -94.44c-14.18,-8.98 -20.46,-16.54 -34.16,-25.56l-70.06 -46.68c-11.88,-7.92 -22.43,-15.74 -34.75,-22.26 -12.65,18.89 -209.71,211.09 -231.42,232.8l-123.82 123.23c-2.48,2.58 -1.46,1.41 -4.1,4.05l-103.86 102.47c-2.12,2 -2.89,2.96 -4.04,4.11 -9.67,9.73 -18.76,17.01 -32.96,18.84 -19.28,2.48 -116.63,-25.31 -141.57,-30.99l-232.64 -57.83c-8.4,-2.44 -16.05,-3.73 -24.42,-5.44 -18.06,-3.7 -149.56,-35.21 -159.87,-41.02 -14.17,-7.99 -16.77,-18.93 -24.56,-32.44 -27.97,-48.48 -52.98,-100.97 -81.19,-149.56l-30.87 -58.71c-3.98,-7.39 -6.38,-10.15 -10,-17.15l-121.6 -225.89c-28.36,-46.58 -53.81,-79.75 -16.11,-118.22 28.63,-29.22 63.9,-76.76 93.58,-107.32l364.85 -414.3c31.49,-39.47 48.84,-14.71 83.8,-13.93 0,-32.4 -12.71,-90.55 -18.63,-125.26l-65.33 -428.78c-1.62,-13.37 0.1,-17.35 -10.3,-24.99 -19.67,-14.47 -121.53,-71.74 -153.89,-93.15 -42.78,-28.31 -88.14,-53.05 -131.38,-80.37 -8.42,-5.32 -14.95,-8.74 -23.81,-14.19 -21.02,-12.94 -48.18,-23.24 -57.03,-48.85 -7.14,-20.66 -15.28,-92.45 -20.14,-121.03l-66.72 -427.39c-5.12,-24.48 -10.33,-31.69 2.61,-54.86 8.03,-14.38 24.62,-23.93 37,-33.58l387.33 -321.21c13.48,-11.35 25.1,-20.89 38.24,-32.34l115.78 -95.98c41.27,-32.44 48.16,-32.83 95.01,-5.03l182.58 102.47c8.72,4.85 15.12,8.19 22.72,12.57 7.63,4.4 14.42,8.51 22.48,12.81l316.85 177.23c12.57,7.25 32.26,25.02 46.53,14.46l111.93 -100.05c26.25,-20.3 49.31,-45.17 75.27,-65.9 12.23,-9.76 24.46,-24.18 37.6,-32.98l-13.43 -203.76c-0.64,-7.84 0.16,-16.48 -0.06,-24.38 -1.84,-66.84 -13.02,-165.07 -13.56,-228.07 -0.76,-89.37 -26.81,-106.66 28.23,-148.03l263.29 -217.23c10.08,-7.92 16.91,-14.01 26.85,-22.02l184.44 -152.19c16.06,-14.3 29.92,-30.99 52.13,-33.28zm679.95 3999.64l396.51 -451.49 468.92 117.32c-25.22,29.35 -59.12,60.19 -87.3,88.1 -30.19,29.9 -58.18,58.21 -88.35,88.12 -17.74,17.59 -256.93,260.92 -265.77,261.54l-424.02 -103.58zm-1869.68 -11.09l-429.35 -104.15c5.83,-10.86 100.68,-117.68 122.09,-140.49 47.57,-50.67 128.69,-147.86 173.75,-198.26 34.55,-38.64 66.96,-76.22 100.14,-113.48l468.66 117.88c-19.79,26.03 -332.68,335.18 -380.11,382.53 -16.21,16.18 -42.49,39.31 -55.18,55.96zm1789.58 -45.48l-56.17 -106.14c-20.31,-36.48 -37.77,-71.4 -58.14,-107.54l-86.41 -160.64c-8.65,-16.46 -22.91,-38.11 -29.61,-55.66 8.34,-13.54 14.44,-17.37 23.97,-28.72 8.31,-9.88 16.97,-19.05 25.16,-29.22 15.86,-19.69 33.55,-38.27 51.14,-57.38l101.63 -115.55c33.44,-38.19 66.43,-75.07 100.33,-114.12 17.41,-20.05 90.06,-107.29 103.91,-114.8 4.01,15.39 95.5,180.68 113.01,215.92 36.41,73.28 77.8,144.11 114.37,216.72 -4.46,11.58 -84.38,99.48 -99.19,115.14l-174.99 199.74c-19.86,21.33 -115.16,135.43 -129.02,142.26zm-507.76 53.2c-12.17,-4.23 -120.04,-79.08 -139.59,-92.14 -45.93,-30.69 -92.28,-61.36 -138.24,-92.52 -41.97,-28.45 -244.63,-160.88 -277.73,-187.21l165.27 -552.83c14.8,5.5 268.51,169.75 287.6,182.08 47.89,30.95 96.38,60.31 144.25,91.99 47.35,31.32 98.22,59.86 143.62,92.21l-185.18 558.43zm-1790.43 -168.25c-37.06,-71.47 -77.97,-141.1 -115.76,-215.01 -37.07,-72.48 -79.68,-143.4 -115.97,-215.82l403.14 -459.12c5.39,4.98 207.01,379.86 231.14,433.85l-61.3 72.08c-44.63,47.63 -95.18,108.53 -138.76,157.18 -33.5,37.4 -94.05,110.29 -124.9,141.11 -16.49,16.48 -63.52,77.8 -77.59,85.73zm2573.71 -785.55c32.85,4.21 86.82,21.2 120.45,29.94l238.06 60.7c38.01,9.67 84.51,18.8 121.26,30.74 11.82,3.84 11.59,8.16 16.25,19.06l36.29 77.65c11.87,24.71 140.61,295.05 144.46,309.91 -37.29,-6.1 -82.03,-20.18 -120.66,-29.87l-329.29 -83.15c-13.55,-3.85 -12.36,-6.24 -18.88,-19.08 -33.92,-66.78 -70.42,-129.64 -104.12,-197.22l-91.17 -172.18c-5.14,-9.45 -8.45,-18.91 -12.65,-26.49zm-1657.63 116.9c-27.32,-59.65 -56.73,-101.43 -54,-159.52l384.71 252.25c-2.13,22.73 -58.7,200.64 -69.81,237.72 -7.28,24.29 -17.36,53.54 -22.92,78.02 -6.55,-2.04 -61.77,-38.09 -66.14,-42.76l-171.83 -365.71zm11.83 243.35c6.45,13.66 18.84,36.63 23.15,51.96 -26.27,-3 -363.24,-90.75 -425.09,-106.39 -40.34,-10.2 -31.93,-3.97 -44.66,-28.31l-206.65 -392.99c36.06,6.01 356.19,89.86 422.04,107.13 64.82,16.99 60.44,6.18 74.95,36.17l156.26 332.43zm1707.96 -440.53c2.6,-15 10.24,-33.95 14.97,-48.14 5.49,-16.47 10.21,-31.03 15.53,-46.84 9.57,-28.45 3.16,-22.77 26.77,-35.81 55.46,-30.65 41.45,-30.52 77.34,-9.01 20.55,12.32 108.86,62.15 114.77,68.98 -13.06,10.86 -41.95,23.86 -58.22,33.25 -134.58,77.73 -84.84,59.02 -191.16,37.57zm339.58 86.4c1.39,-7.39 28.94,-85.83 31.16,-88.12 5.26,-5.43 14.02,-2.28 24.1,-5.86 16.68,-5.92 185.66,-105.58 208.42,-112.36l-100.52 268.86c-17.55,-31.4 -34.49,-30.18 -73.78,-39.91 -29.41,-7.28 -60.66,-16.76 -89.37,-22.61zm-2749.7 -233.24l0 0zm1207.77 149.97c1.83,-18.46 39.82,-136.03 48.17,-164.6l96.7 -321.08c15.86,-52.21 36.51,-109.99 48.9,-162.26l601.68 354.07c-1.51,17.53 -20.24,65.43 -26.53,84.63 -21.61,65.94 -186,565.56 -193.17,574.72 -12.61,-6.33 -24.09,-14.58 -36.6,-22.74 -12.05,-7.86 -24.02,-14.91 -36.54,-23.18 -70.13,-46.32 -143.95,-89.78 -215.51,-137.46 -72.13,-48.06 -144.94,-90.76 -215.46,-137.47 -19.54,-12.94 -52.42,-36.04 -71.64,-44.63zm-83.85 -112.44c2.6,41.15 5.32,47.09 -6.02,84.21l-64.42 215.88c-14.31,-4.73 -423.47,-277.85 -423.49,-277.87 -3.6,-5.14 -22.73,-194.52 -21.31,-210.79 16.62,6.8 46.79,28.21 65.15,39.13l191.97 117.52c42.59,24.88 88.13,52.24 129.84,79.19 69.82,45.12 81.91,-24.13 128.27,-47.28zm-1049.16 -214.39c17.64,7.51 44.35,27.64 60.93,38.43l343.49 226.58c42.74,28.13 47.86,23.31 49.03,49.43l-422.19 -107.63 -31.26 -206.81zm2566.58 -113.08c20.28,4.61 86.12,49.42 109.76,60.72 29.09,13.92 44.53,3.73 61.27,-9.66 7,-5.6 45.3,-27.79 55.68,-30.8l-103.96 294.8c-21.45,-4.46 -162.15,-97.33 -192.33,-108.99l69.58 -206.07zm-653.24 518.95c28.05,-83.3 55.4,-165.56 82.64,-248.38 6.91,-21.02 13.99,-41.67 21.09,-63.24 12.56,-38.17 10.18,-45.4 29.61,-54.55 37.73,-17.76 74.89,-35.24 111.49,-54.1l168.08 -81.62c17.08,-8.12 39.68,-21.84 58.33,-26.23l-140.29 421.81c-25.32,-4.48 -59.2,-21.13 -83.17,-9.66 -14.01,6.7 -85.27,91.21 -96.71,104.21l-92.33 105.89c-17.27,18.1 -130.92,152.12 -141.77,158.17l83.02 -252.27zm886.57 -234.89c3.06,-19.31 100.11,-284.84 109.37,-311.12 12.07,-34.25 4.49,-24.2 53.26,-52.61 21.09,-12.29 43.76,-25.37 65.51,-37.65 22.2,-12.53 44.53,-25.59 67.09,-38.83 16.34,-9.59 51.73,-32.56 67.33,-37.36 -6.28,24.96 -19.67,54.96 -28.48,79.03l-99.82 269.15c-3.69,5.18 -224.49,125.85 -234.25,129.38zm-2397.93 -226.58c14.26,8.16 16.95,6.24 18.91,25.32 5.42,52.88 16.73,145.17 17.45,189.06 -15.9,-6.57 -124.56,-80.8 -148.64,-96.58l-294.44 -194.24c-21.82,-14.03 -17.71,-10.7 -22.18,-40.73 -5.84,-39.24 -22.18,-128.51 -23.31,-157.22 21.69,10.2 84.3,50.3 111.31,66.96l35.64 24.09c35.65,24.09 62.23,-1.85 81.01,-21.26 7,-7.24 54.57,-52.6 64.59,-54.57 3.45,41.47 6.95,117.26 15.23,154.02 5.28,23.44 23.26,31.45 41.6,42.42l102.84 62.74zm601.59 181.21c-5.21,-134.53 -16.45,-265.81 -22.47,-399.42 -2.97,-65.84 -10.71,-28.01 46.27,-86.89 7.1,-7.34 11.19,-10.28 18.76,-16.56l273.75 -246.36c-4.95,29.02 -21.34,73.34 -30.7,104.1l-153.69 511.45c-8.69,29.15 -8.32,24.31 -27.47,40.25 -18.71,15.57 -90.69,85.5 -104.45,93.43zm-658.47 -336.79l-26.55 -277.18c-4.38,-48.39 -14.22,-109.85 -14.34,-157.55 15.47,5.77 567.05,328.36 574.98,335.34l25.26 451.84c-10.97,-3.1 -200.3,-120.8 -216.11,-130.33 -103.72,-62.55 -222.42,-139.68 -323.41,-197.81 -13.23,-7.62 -17.8,-6.34 -19.83,-24.31zm1019.29 -214.67c3.19,-21.74 18.16,-62.68 25.14,-85.78 9.12,-30.18 16.76,-56.03 25.69,-85.59 21.46,-71.08 148.67,-501.9 155.08,-509.19 32.26,15.15 117.73,66.2 156.16,87.33 37.57,20.66 449.49,254.57 468.94,262.47l-228.28 685.21c-15.26,-4.54 -597.66,-349 -602.73,-354.44zm1162.68 181.04c36.15,-109.16 73.21,-219.27 109.44,-328.39 16.61,-50.01 91.77,-283.43 109.66,-327.09 43.21,20.66 118.22,73.12 155.36,89.07l-231.24 646.62c-14.64,-4.95 -131.82,-70.95 -143.22,-80.21zm-2129.51 -555.71c8.28,-8.13 21.99,-20.47 31.53,-28.17 30.97,-25.01 66.81,-60.94 92.32,-81.45 11.05,-8.88 21.62,-18.47 32.23,-27.52 5.6,-4.77 9.57,-9.57 15.45,-14.38l125.86 -110.34c23.9,-21.92 126.16,-114.64 139.68,-121.87 24.24,11.19 48.95,26.81 72.31,39.91l486.85 273.24c-1.17,13.42 -8.49,32.85 -12.75,47.17 -6.82,22.93 -12.42,19.31 -26.63,32.88l-432.92 390.77c-14.47,-4.16 -126.75,-72.42 -149.24,-85.37 -32.06,-18.47 -425.9,-246.84 -437.65,-257.85l62.95 -57.03zm1851.41 198.18c13.72,-42.09 27.95,-83.54 41.94,-126.28 5.42,-16.54 7.41,-14.95 22.29,-21.23 8.62,-3.64 18.75,-8.24 28.54,-12.25l296.01 -124.97c-2.76,18.85 -177.63,536.91 -189.35,571.02 -6.76,19.68 -9.24,47.67 -27.73,56.51 -35.1,16.79 -322.55,159.89 -341.04,165.58l169.34 -508.39zm543.52 398.85c10.5,-38.11 29.41,-83.2 43.17,-121.62l152.71 -425.61c14.82,-40.51 8.68,-40.97 30.6,-50.71l344.59 -147.49c-26.34,79.64 -58.57,161.69 -87.78,241.53 -29.53,80.7 -57.39,160.62 -87.78,240.63 -13.94,36.71 -9.61,42.13 -30.26,53.89 -47.39,26.98 -351.03,205.34 -365.26,209.38zm-2610.75 -669.01c54.91,-46.64 126.3,-115.2 180.15,-159.19 52.09,-42.54 127.79,-116.64 181.67,-160.39 11.57,-9.4 50.21,-46.89 58.59,-49.08l6.72 131.01 -112.38 99.03c-11.6,9.77 -26.13,21.59 -36.45,31.5 -12.21,11.71 -25.1,23.59 -37.33,33.24l-147.31 129.58c-8.88,8.42 -10.82,9.97 -18.77,16.54 -6.81,5.63 -11.55,11.26 -18.46,16.75 -13.43,10.69 -28.81,17.05 -34.23,36.24 -4.96,17.54 12.32,165.23 14.6,188.54 3.63,37.33 12.22,92.16 11.3,128.26 -11.35,6.92 -55.09,51.41 -63.54,52.04l-45.56 -441.87 61.01 -52.2zm-153.61 129.06c6.25,58.87 39.14,349.77 37.83,374.01 -30.44,-14.48 -423.51,-257.35 -466.99,-283.98 -23.77,-14.56 -44.4,-21.54 -47.99,-37.09l-66.39 -430.79c16.45,6.2 38.81,21.36 54.69,30.75l422 245.82c15.79,9.07 39.26,20.87 53.34,30.91 10.48,7.47 8.06,17.76 9.73,34.43 1.17,11.69 2.49,23.72 3.78,35.94zm1634.08 -428.24c2.6,-2.73 1.17,-1.66 5.01,-4.07 0.55,-0.34 1.24,-0.75 1.82,-1.07 0.58,-0.32 1.29,-0.62 1.89,-0.91 1.64,-0.77 6.34,-2.24 8,-2.79 60.93,-20.55 362.5,-131.71 373.98,-129.91 7.49,1.17 391.54,229.36 445.6,260.43l108.83 64.88c-10.22,8.45 -268.51,115.89 -312.98,134.9 -36.77,15.71 -29.9,17.07 -63.58,-2.65 -108.65,-63.63 -230.17,-128.88 -340.68,-191.5l-227.9 -127.3zm-647.08 -108.41c18.44,6.52 40.18,21.05 57.06,30.22l160.22 89.54c58.79,32.12 161.06,93.77 212.82,118.62 -1.25,13.34 -18,70.81 -24.56,78.67l-401.35 -223.98 -4.2 -93.07zm1642.99 -23.46c19.87,-7.11 113.51,-45.43 126.83,-41.52l549.37 295.46c-16.69,11.05 -365.38,158.16 -367.88,157.86l-168.12 -97.1c-15.14,-9.13 -39.76,-25.29 -55.08,-31.84 -38.63,-16.5 -23.1,-9.25 -59.39,-30.13l-273.98 -161.77 248.25 -90.96zm721.87 171.83c2.63,-18.65 5.79,-15.75 22.17,-22.23 38.45,-15.21 194.71,-84.52 214.69,-89.74l-199.01 542.68c-8.52,23.46 -3.18,17.12 -25.63,28.5 -9.6,4.87 -24.63,13.01 -34.91,15.51 6.67,-25.82 105.48,-290.36 121.29,-333.65 8.83,-24.18 24.7,-39.02 12.29,-69.16 -14.96,-36.34 -77.09,-41.73 -110.89,-71.91zm-3495.06 -409.55c21.82,-17.67 42.12,-34.32 63.82,-52.89l63.6 -51.37 545.27 304.93c-7.47,15.44 -235.59,206.78 -278.07,248.32 -45.65,44.64 -142.05,120.83 -184.74,162.74 -6.77,6.65 -23.79,22.59 -31.13,26.94 -5.46,0.82 -126.1,-71.36 -140.94,-80.01 -46.03,-26.8 -93.29,-54.01 -139.05,-80.88 -46.92,-27.55 -92,-53.21 -138.83,-81.06 -2.56,-1.52 -135.16,-76.72 -136.18,-80.82 -0.2,-0.8 -0.88,-0.88 -1.28,-1.37l377.52 -314.53zm1276.84 66.16c37.8,-34.21 75.34,-65.41 113.91,-100.56l202.49 -177.61c10.58,-9.97 18.14,-14.57 26.4,-24.24 16.51,4.96 122.61,64.87 147.67,77.93l293.66 156.94c21.95,12.23 138.16,70.36 144.67,79.72 -5.55,6.59 -56.95,52.96 -62.52,55.9 -19.39,10.25 -64.98,23.5 -87.95,31.59l-348.75 123.53c-22.18,7.89 -71.85,21.71 -85.09,34.41 -21.77,20.88 -18.59,62.57 -33.69,83.67 -14.85,-5.04 -40.05,-21.29 -55.07,-29.66 -18.28,-10.19 -34.61,-19.73 -53.97,-30.2 -35.73,-19.31 -70.45,-38.57 -106.23,-59.38l-186.35 -104.11c-12.18,-6.72 -18.16,-7.55 -24.67,-16.71l115.48 -101.2zm-470.71 147.85c10.31,-7.7 19.66,-17.48 30.48,-26.18 28.23,-22.68 57.55,-52.86 86.26,-76.55 10.14,-8.36 19.02,-16.85 29.19,-25.2 23.73,-19.48 68.82,-63.49 87.74,-76.39l96.53 55.06c-19.21,22.47 -68.66,60.26 -89.52,80.79 -23.84,23.47 -9.21,112.68 -7.84,152.84 -37.83,-10.9 -84.78,-68.48 -127.65,-33.14 -12.19,10.05 -87.23,79.37 -97.8,84.6l-7.4 -135.84zm2117.83 -198.12c8.42,-8.35 85.8,-32.12 104.34,-38.81 36.06,-13.02 70.63,-24.89 106.42,-37.4 24.5,-8.56 30.2,-17.39 52.28,-5.7l329.32 172.93c44.45,23.47 146.88,79.83 186.59,97.88l-205.29 89.63c-26.05,11.53 -27.28,17.43 -52.39,3l-142.9 -76.98c-96.39,-54.05 -191.28,-101.17 -285.84,-153.94 -29.26,-16.33 -64.91,-32.01 -92.53,-50.62zm-850.51 -116.74c3.63,-7.58 17.12,-18.48 24.78,-22.58l408.38 218.88 -140.41 140.77 -37.4 -22.14c-10.85,-89.47 31.51,-158.91 -20.45,-188.66 -14.96,-8.56 -30.54,-16.39 -46.2,-24.39l-188.7 -101.87zm-1021.83 -435.25l122.59 64.1c39.99,22.11 78.36,41.22 118.43,63.44 25.37,14.07 221.78,116.82 236.78,127.85 -10.78,12 -25.86,22.97 -39.44,35.98l-276.95 241.96c-11.72,-3.32 -123.54,-66.37 -134.7,-74.57l-26.71 -458.77zm648.01 234.56c59.99,-53.63 119.47,-106.07 181.19,-160.35l91.12 -79.92c13.86,-13.39 28.93,-24.8 44.56,-39.62 10.53,-10 34.97,-32.28 47.57,-39.1 -2.42,120.7 -12.13,271.97 -17.88,397.52 -1.39,30.4 -7.79,27.28 -25.46,42.2 -9.88,8.35 -26.87,26.61 -36.73,31.81 -13.84,-3.93 -279.61,-147.54 -284.35,-152.55zm-235.77 -642.55c65.57,-54.72 51.93,-53.67 85.28,-35.64l96.07 50.55c43.86,22.91 84.8,44.22 128.06,67.38 84.51,45.24 171.12,91.48 255.88,134.4 -6.29,10.07 -63.25,57.99 -78.99,71.5 -39.04,33.51 -93.3,86.19 -130.92,116.07 -25.57,20.31 -197.77,178.07 -212.6,185.64 -48.55,-22.45 -205.92,-108.61 -259.84,-138.35 -19.79,-10.91 -249.28,-129.98 -258.88,-140.43l375.93 -311.12z"/>
 </g>
</svg>
